<?xml version="1.0" encoding="utf-8"?>
<!-- Generator: Adobe Illustrator 24.0.0, SVG Export Plug-In . SVG Version: 6.00 Build 0)  -->
<svg version="1.1" id="magazine-logo" xmlns="http://www.w3.org/2000/svg" xmlns:xlink="http://www.w3.org/1999/xlink" x="0px"
	 y="0px" viewBox="0 0 400 53.6" style="enable-background:new 0 0 400 53.6;" xml:space="preserve">
<style type="text/css">
	.st0{opacity:0.5;fill:#FFFFFF;}
	.st1{opacity:0.25;fill:#FFFFFF;}
</style>
<path class="st0" d="M197.5,45.8c-5.5,0-9.6-3.6-9.6-11.2c0-7.2,3.8-11.1,9-11.1c3.5,0,6.9,1.2,9.6,3.4l1.3-8.1
	c-3.4-2.1-7.4-3.2-11.4-3.1c-9.7,0-17.6,6.5-17.6,19.1c0,11.9,7.2,18.7,17.3,18.7c4.3,0.1,8.5-1.1,12-3.6l-1.2-7.7
	C204.3,44.6,201,45.8,197.5,45.8z"/>
<path class="st0" d="M81.3,45.6c-3.5,0-4.8-1.6-4.8-4.5V23.9H85l-1.1-7.4h-7.5V3.6L67.6,5v11.5h-5.1v7.4h5.1v18.7
	c0,8.3,4.8,10.9,12,10.9c1.9,0,3.8-0.2,5.7-0.6l-1.1-7.6C83.2,45.5,82.2,45.6,81.3,45.6z"/>
<path class="st0" d="M16.9,15.7c-5,0-9.9,1-14.5,2.9l1.1,7.2c3.8-1.8,7.9-2.8,12.1-2.9c4,0,6.2,1.5,6.2,5.4v1
	C7.2,30.9,0,34.7,0,43.5c0,6.3,4.1,10.1,10.3,10.1c4.6,0,9.1-2,12.1-5.5l0.8,4.8H31V27.9C31,19.2,26.3,15.7,16.9,15.7z M22,42.9
	c-2.2,2.4-5.3,3.8-8.5,3.9c-2.8,0-4.4-1.6-4.4-4.2c0-3.5,2.5-6.6,13-7.8L22,42.9z"/>
<path class="st0" d="M46.8,23.8l-1.1-7.3H38v36.4h9V32c2.9-4.3,7.8-7,13-7.3l-1.4-9C52.9,16,49.3,19.6,46.8,23.8z"/>
<path class="st0" d="M218.7,0c-0.1,0-0.1,0-0.2,0c-2.9-0.1-5.3,2.1-5.4,5c0,0.1,0,0.2,0,0.2c0.1,3,2.6,5.3,5.6,5.2
	c2.8-0.1,5-2.4,5.2-5.2C223.9,2.4,221.6,0,218.7,0z"/>
<rect x="213.9" y="16.5" class="st0" width="9" height="36.4"/>
<path class="st0" d="M386.9,30.4h0.1c-5.4-1.4-6.8-2.5-6.8-4.4s1.7-3.3,5-3.3c4.1,0.1,8,1.3,11.5,3.3l1.2-7.5
	c-4-1.8-8.4-2.6-12.7-2.6c-8.4,0-13.4,4.4-13.4,10.7c0,6.6,3.7,9.2,12.5,11.5c5.8,1.4,7.4,2.5,7.4,5c0,2.3-2.1,3.8-6,3.8
	c-4.7-0.2-9.3-1.6-13.3-4.3l-1.3,7.5c4.4,2.3,9.2,3.5,14.2,3.5c9.6,0,14.7-4.2,14.7-11.4C400,35.3,396.3,32.8,386.9,30.4z"/>
<path class="st0" d="M321.7,45.8L321.7,45.8c-5.5,0-9.6-3.6-9.6-11.1c0-7.2,3.8-11.1,9-11.1c3.5,0,6.9,1.2,9.6,3.4l1.3-8.1
	c-3.4-2.1-7.4-3.2-11.4-3.1c-9.7,0-17.6,6.5-17.6,19.1c0,11.9,7.2,18.7,17.3,18.7c4.3,0.2,8.5-1.1,12-3.5l-1.1-7.7
	C328.6,44.6,325.2,45.8,321.7,45.8z"/>
<path class="st0" d="M351.8,15.7c-9.5,0-16.6,7.2-16.6,19c0,13.1,7.6,18.9,17.8,18.9c5.2,0.1,10.3-1.5,14.5-4.4l-1-7.1
	c-4,2.8-7.8,4.5-12.5,4.5c-5.6,0-9.4-3-9.9-10.2h23.4c0-0.5,0.1-1.4,0.1-2.2h0C367.6,24,362.7,15.7,351.8,15.7z M344.3,30.8
	c0.7-5.9,3.7-8.8,7.3-8.8c4.4,0,6.6,3.2,7.2,8.8H344.3z"/>
<path class="st0" d="M245.3,15.7c-9.5,0-16.6,7.2-16.6,19c0,13.1,7.6,18.9,17.8,18.9c5.2,0.1,10.3-1.5,14.5-4.4l-1-7.1
	c-4,2.8-7.8,4.5-12.5,4.5c-5.6,0-9.4-3-9.9-10.2h23.4c0-0.5,0.1-1.4,0.1-2.2h0C261.2,24,256.3,15.7,245.3,15.7z M237.8,30.8
	c0.7-5.9,3.7-8.8,7.3-8.8c4.4,0,6.6,3.2,7.2,8.8H237.8z"/>
<path class="st0" d="M287.2,15.7c-4.9,0-8.7,2.6-12.1,5.9l-0.8-5.1h-7.7v36.4h9V28.3c2.6-2.8,5.4-4.6,8.3-4.6c3.3,0,4.7,2.2,4.7,5.3
	v23.8h9V26.7C297.6,19.9,294,15.7,287.2,15.7z"/>
<polygon class="st0" points="287.2,15.7 287.2,15.7 287.2,15.7 "/>
<path class="st0" d="M162.2,30.3c-5.4-1.4-6.8-2.5-6.8-4.4s1.7-3.3,5-3.3c4.1,0.1,8.1,1.3,11.6,3.3l1.2-7.5c-4-1.8-8.4-2.6-12.7-2.6
	c-8.4,0-13.4,4.4-13.4,10.7c0,6.6,3.7,9.2,12.5,11.5c5.8,1.4,7.4,2.5,7.4,5c0,2.3-2.1,3.8-6,3.8c-4.7-0.2-9.3-1.6-13.3-4.3l-1.2,7.6
	c4.4,2.3,9.2,3.5,14.2,3.5c9.6,0,14.7-4.2,14.7-11.4C175.3,35.3,171.6,32.8,162.2,30.3z"/>
<path class="st0" d="M104,30.3c-5.4-1.4-6.8-2.5-6.8-4.4s1.7-3.3,5-3.3c4.1,0.1,8,1.3,11.5,3.3l1.2-7.5c-4-1.8-8.4-2.6-12.7-2.6
	c-8.4,0-13.4,4.4-13.4,10.7c0,6.6,3.7,9.2,12.5,11.5c5.8,1.4,7.4,2.5,7.4,5c0,2.3-2.1,3.8-6,3.8c-4.7-0.2-9.3-1.6-13.3-4.3L88.3,50
	c4.4,2.3,9.2,3.5,14.2,3.5c9.6,0,14.7-4.2,14.7-11.4h0C117.1,35.3,113.5,32.8,104,30.3z"/>
<path class="st1" d="M144.5,42.4L144.5,42.4c2.2-2,4.2-4.1,6-6.4c0.4-0.4,0.6-0.8,0.8-1.2c-1.1-0.7-2-1.5-2.7-2.4
	c-0.6,0.4-1.1,0.9-1.5,1.7c-1.4,2.4-3,4.6-4.8,6.7c-4-4.2-7.2-9-9.6-14.3c6-2.6,15.4-8.5,15.4-15.5c-0.1-4.6-3.9-8.3-8.5-8.2
	c-0.1,0-0.1,0-0.2,0c-9.2,0-15,7.8-15,16.5c0.1,2.7,0.7,5.4,1.7,7.9c-5.8,2.3-9.4,5-11.3,8.1c1.6,1.7,2.3,3.9,2.3,6.9h0
	c0,2.5-0.7,4.7-1.9,6.4c2.3,3.1,6.3,4.5,10.9,4.5c5.9,0,9-2,13.7-6.1c1.1,1.1,2.3,2.1,3.5,3C146.5,52.3,148.5,45.8,144.5,42.4z
	 M137.3,7.4c2.2,0,4.1,2,4.1,5.2c0,5.8-5.7,10.2-9.4,11.9c-1-2.7-1.5-5.6-1.6-8.5C130.5,11.4,132.2,7.4,137.3,7.4z M129.3,48
	c-5,0-9.6-3.1-9.6-8.6c0-4,2.2-7.8,7.3-10c2.5,6,6.2,11.4,10.9,16C135.3,47.1,132.4,48,129.3,48z"/>
</svg>
